<?xml version="1.0" standalone="no"?>
<!DOCTYPE svg PUBLIC "-//W3C//DTD SVG 20010904//EN"
 "http://www.w3.org/TR/2001/REC-SVG-20010904/DTD/svg10.dtd">
<svg version="1.0" xmlns="http://www.w3.org/2000/svg"
 width="597.000000pt" height="597.000000pt" viewBox="0 0 597.000000 597.000000"
 preserveAspectRatio="xMidYMid meet">
<metadata>
Created by potrace 1.11, written by Peter Selinger 2001-2013
</metadata>
<g transform="translate(0.000000,597.000000) scale(0.100000,-0.100000)"
fill="#000000" stroke="none">
<path d="M2805 5779 c-619 -43 -1207 -287 -1680 -699 -405 -352 -717 -842
-865 -1357 -34 -120 -72 -300 -92 -438 -18 -122 -17 -589 0 -715 84 -593 315
-1103 696 -1535 364 -414 842 -713 1381 -864 455 -128 1004 -134 1459 -16 955
246 1698 933 2013 1860 99 292 146 583 146 910 0 335 -45 615 -150 925 -242
716 -774 1317 -1460 1650 -336 163 -672 252 -1063 279 -161 12 -211 12 -385 0z"/>
</g>
</svg>
